<svg width="240" height="260" viewBox="0 0 240 260" fill="none" xmlns="http://www.w3.org/2000/svg">
<path d="M206.415 258.175L2.09977 145.88C-1.00992 144.173 -0.621209 141.193 2.97102 139.232L21.4415 129.108C25.0338 127.134 30.4623 126.93 33.572 128.624L237.9 240.92C241.01 242.626 240.621 245.606 237.029 247.567L218.558 257.691C214.966 259.665 209.538 259.869 206.428 258.175H206.415Z" fill="#F2F2F2"/>
<path d="M226.117 239.455V242.193C226.117 244.638 224.415 247.084 221.037 248.943C214.242 252.7 203.17 252.7 196.321 248.943C192.876 247.058 191.16 244.575 191.16 242.092V239.354C191.16 241.824 192.876 244.307 196.321 246.205C203.183 249.962 214.242 249.962 221.037 246.205C224.415 244.346 226.104 241.9 226.117 239.455Z" fill="#4364F7"/>
<path d="M220.944 232.605C227.807 236.361 227.834 242.449 221.038 246.205C214.242 249.962 203.171 249.962 196.321 246.205C189.472 242.449 189.445 236.361 196.241 232.605C203.037 228.848 214.108 228.848 220.944 232.605Z" fill="url(#paint0_linear_6686_506467)"/>
<path d="M213.719 236.553C216.548 238.107 216.561 240.615 213.76 242.169C210.958 243.723 206.387 243.723 203.559 242.169C200.731 240.615 200.718 238.107 203.532 236.566C206.334 235.012 210.905 235.012 213.719 236.566V236.553Z" fill="url(#paint1_linear_6686_506467)"/>
<path d="M226.119 239.469V242.207C226.119 244.639 224.417 247.084 221.039 248.943C217.621 250.841 213.131 251.783 208.641 251.758V249.02C213.131 249.033 217.621 248.103 221.039 246.205C224.417 244.346 226.119 241.901 226.119 239.469Z" fill="url(#paint2_linear_6686_506467)"/>
<path d="M215.071 108.671V239.139C215.071 240.043 214.441 240.935 213.208 241.622C210.701 243.011 206.64 243.011 204.106 241.622C202.833 240.922 202.203 240.018 202.203 239.101V108.633C202.203 109.55 202.833 110.454 204.106 111.154C206.626 112.542 210.701 112.542 213.208 111.154C214.454 110.467 215.071 109.575 215.071 108.671Z" fill="#4364F7"/>
<path d="M215.059 108.67V239.125C215.059 240.029 214.442 240.934 213.182 241.609C211.922 242.309 210.274 242.653 208.625 242.653V112.185C210.274 112.197 211.922 111.854 213.182 111.153C214.442 110.453 215.059 109.574 215.059 108.67Z" fill="url(#paint3_linear_6686_506467)"/>
<path d="M213.166 106.149C215.686 107.537 215.7 109.778 213.207 111.153C210.7 112.529 206.639 112.529 204.105 111.153C201.585 109.778 201.572 107.537 204.079 106.149C206.585 104.773 210.646 104.773 213.166 106.149Z" fill="url(#paint4_linear_6686_506467)"/>
<path d="M213.33 101.13V107.816C213.33 108.478 212.874 109.127 211.963 109.624C210.14 110.63 207.164 110.63 205.314 109.624C204.39 109.115 203.92 108.453 203.934 107.778V101.092C203.934 101.754 204.39 102.429 205.314 102.938C207.164 103.944 210.126 103.944 211.963 102.938C212.874 102.442 213.33 101.779 213.33 101.13Z" fill="#4364F7"/>
<path d="M211.949 99.2838C213.798 100.29 213.798 101.933 211.975 102.939C210.152 103.945 207.177 103.945 205.327 102.939C203.491 101.933 203.477 100.29 205.3 99.2838C207.123 98.2778 210.099 98.2778 211.949 99.2838Z" fill="url(#paint5_linear_6686_506467)"/>
<path d="M213.345 101.131V107.817C213.345 108.466 212.89 109.116 211.978 109.625C211.053 110.134 209.86 110.389 208.641 110.389V103.703C209.847 103.703 211.053 103.449 211.978 102.952C212.903 102.455 213.345 101.78 213.345 101.131Z" fill="url(#paint6_linear_6686_506467)"/>
<path d="M46.6408 140.94V143.678C46.6408 146.123 44.9385 148.568 41.5608 150.427C34.765 154.184 23.6934 154.184 16.8441 150.427C13.3993 148.542 11.6836 146.059 11.6836 143.576V140.838C11.6836 143.308 13.3993 145.792 16.8441 147.689C23.7068 151.446 34.765 151.446 41.5608 147.689C44.9385 145.83 46.6274 143.385 46.6408 140.94Z" fill="#4364F7"/>
<path d="M41.4793 134.075C48.3421 137.845 48.3689 143.919 41.5731 147.676C34.7774 151.433 23.7058 151.433 16.8564 147.676C10.0071 143.919 9.98025 137.832 16.776 134.075C23.5718 130.319 34.6433 130.319 41.4793 134.075Z" fill="url(#paint7_linear_6686_506467)"/>
<path d="M34.2428 138.024C37.071 139.577 37.0844 142.086 34.283 143.64C31.4816 145.193 26.9109 145.193 24.0827 143.64C21.2545 142.086 21.2411 139.577 24.0559 138.036C26.8573 136.483 31.428 136.483 34.2428 138.036V138.024Z" fill="url(#paint8_linear_6686_506467)"/>
<path d="M46.6427 140.939V143.677C46.6427 146.11 44.9404 148.555 41.5626 150.414C38.1446 152.312 33.6544 153.241 29.1641 153.229V150.491C33.6544 150.503 38.1446 149.574 41.5626 147.676C44.9404 145.817 46.6427 143.372 46.6427 140.939Z" fill="url(#paint9_linear_6686_506467)"/>
<path d="M35.5943 10.1398V140.608C35.5943 141.512 34.9643 142.403 33.7311 143.091C31.2246 144.479 27.1632 144.479 24.6299 143.091C23.3565 142.391 22.7266 141.487 22.7266 140.57V10.1016C22.7266 11.0185 23.3565 11.9226 24.6299 12.6231C27.1498 14.0111 31.2246 14.0111 33.7311 12.6231C34.9777 11.9354 35.5943 11.0439 35.5943 10.1398Z" fill="#4364F7"/>
<path d="M35.594 10.1406V140.596C35.594 141.5 34.9774 142.404 33.7175 143.079C32.4575 143.78 30.8088 144.124 29.1602 144.124V13.6554C30.8088 13.6682 32.4575 13.3243 33.7175 12.6239C34.9774 11.9235 35.594 11.0448 35.594 10.1406Z" fill="url(#paint10_linear_6686_506467)"/>
<path d="M33.6898 7.6192C36.2097 9.00729 36.2231 11.2486 33.73 12.624C31.2235 14.0121 27.1621 14.0121 24.6288 12.624C22.1089 11.2359 22.0955 9.00729 24.602 7.6192C27.1085 6.2311 31.1699 6.2311 33.6898 7.6192Z" fill="url(#paint11_linear_6686_506467)"/>
<path d="M33.8651 2.60164V9.28742C33.8651 9.94963 33.4094 10.5991 32.4979 11.1085C30.675 12.1145 27.6994 12.1145 25.8496 11.1085C24.9248 10.5991 24.4556 9.93689 24.469 9.26195V2.57617C24.469 3.23838 24.9248 3.91333 25.8496 4.42272C27.6994 5.42877 30.6616 5.42877 32.4979 4.42272C33.4094 3.92606 33.8651 3.26385 33.8651 2.61438V2.60164Z" fill="#4364F7"/>
<path d="M32.472 0.754537C34.3217 1.76059 34.3217 3.40338 32.4988 4.40943C30.6759 5.41548 27.7002 5.41548 25.8505 4.40943C24.0142 3.40338 24.0008 1.76059 25.8237 0.754537C27.6466 -0.251512 30.6223 -0.251512 32.472 0.754537Z" fill="url(#paint12_linear_6686_506467)"/>
<path d="M33.8688 2.60156V9.30007C33.8688 9.94955 33.4131 10.599 32.5016 11.1084C31.5768 11.6178 30.3838 11.8725 29.1641 11.8725V5.17399C30.3704 5.17399 31.5768 4.9193 32.5016 4.42264C33.4265 3.92598 33.8688 3.25104 33.8688 2.60156Z" fill="url(#paint13_linear_6686_506467)"/>
<path d="M220.197 136.621L220.09 170.725C220.09 172.227 219.527 173.284 218.629 173.768L226.524 169.413C227.422 168.916 227.985 167.859 227.985 166.369L228.092 132.266L220.197 136.621Z" fill="#D9D9D9"/>
<path d="M223.091 124.027L15.0501 9.89757C13.6561 9.13348 12.3962 9.05708 11.4847 9.56647L3.58984 13.9218C4.50131 13.4124 5.76127 13.4888 7.15527 14.2529L215.196 128.382C217.971 129.898 220.209 133.591 220.196 136.609L228.091 132.254C228.091 129.235 225.852 125.542 223.091 124.027Z" fill="#F2F2F2"/>
<path d="M215.196 128.382C217.971 129.898 220.209 133.591 220.196 136.609L220.088 170.713C220.088 173.744 217.823 174.954 215.049 173.425L7.00751 59.3216C4.23291 57.8062 1.99447 54.1258 2.00787 51.0949L2.1151 16.9911C2.1151 13.973 4.38035 12.7504 7.15495 14.2659L215.196 128.382Z" fill="#E6E6E6"/>
<path d="M38.4395 31.419L2.00781 49.9737L2.07483 29.2159L18.8296 20.6836L38.4395 31.419Z" fill="url(#paint14_linear_6686_506467)"/>
<path d="M73.8669 50.8643L31.2024 72.5899L11.6328 61.8545L54.2973 40.1289L73.8669 50.8643Z" fill="url(#paint15_linear_6686_506467)"/>
<path d="M109.32 70.3107L66.6421 92.0235L47.0859 81.2881L89.7504 59.5625L109.32 70.3107Z" fill="url(#paint16_linear_6686_506467)"/>
<path d="M144.759 89.7452L102.095 111.484L82.5117 100.735L125.176 79.0098L144.759 89.7452Z" fill="url(#paint17_linear_6686_506467)"/>
<path d="M180.212 109.191L137.548 130.929L117.965 120.168L160.629 98.4551L180.212 109.191Z" fill="url(#paint18_linear_6686_506467)"/>
<path d="M215.623 128.65L172.985 150.375L153.402 139.64L196.067 117.914L215.181 128.395C215.328 128.471 215.462 128.56 215.61 128.65H215.623Z" fill="url(#paint19_linear_6686_506467)"/>
<path d="M220.182 143.129L220.115 163.848L208.427 169.808L188.871 159.073L220.182 143.129Z" fill="url(#paint20_linear_6686_506467)"/>
<path d="M46.4266 27.1027L38.4648 31.4453L18.8281 20.6844L26.7632 16.3418L46.4266 27.1027Z" fill="url(#paint21_linear_6686_506467)"/>
<path d="M81.8546 46.5481L73.9196 50.8779L54.2695 40.117L62.1912 35.7617L81.8546 46.5481Z" fill="url(#paint22_linear_6686_506467)"/>
<path d="M117.294 65.9826L109.345 70.3252L89.6953 59.5516L97.6304 55.209L117.294 65.9826Z" fill="url(#paint23_linear_6686_506467)"/>
<path d="M152.718 85.429L144.783 89.7588L125.133 78.9979L133.068 74.6426L152.718 85.429Z" fill="url(#paint24_linear_6686_506467)"/>
<path d="M188.144 104.849L180.195 109.191L160.559 98.4178L168.494 94.0625L188.144 104.849Z" fill="url(#paint25_linear_6686_506467)"/>
<path d="M223.57 124.308L215.608 128.638C215.461 128.549 215.34 128.459 215.193 128.383L196.012 117.851L203.933 113.496L223.087 124.002C223.248 124.091 223.409 124.181 223.57 124.295V124.308Z" fill="url(#paint26_linear_6686_506467)"/>
<path d="M228.092 138.824L228.012 159.595L220.117 163.925L220.184 143.154L228.092 138.824Z" fill="url(#paint27_linear_6686_506467)"/>
<g style="mix-blend-mode:multiply">
<path d="M171.123 149.37L76.9609 97.7173L100.914 65.7402L147.438 91.2481L171.123 149.37Z" fill="#E6C1C2"/>
</g>
<g style="mix-blend-mode:multiply">
<path d="M155.374 86.9059L147.439 91.2484L117.816 75.0116L125.751 70.6562L155.374 86.9059Z" fill="#E6C1C2"/>
</g>
<path d="M160.71 151.725L151.301 156.921C152.185 156.437 152.48 155.049 151.77 153.317L161.179 148.121C161.89 149.853 161.582 151.241 160.71 151.725Z" fill="url(#paint28_linear_6686_506467)"/>
<path d="M101.211 37.367L110.62 32.1712C111.183 31.8529 111.947 31.9547 112.698 32.375L103.289 37.5708C102.538 37.1633 101.774 37.0614 101.211 37.367Z" fill="url(#paint29_linear_6686_506467)"/>
<path d="M105.809 40.5513L115.218 35.3555L161.18 148.109L151.77 153.318L105.809 40.5513Z" fill="url(#paint30_linear_6686_506467)"/>
<path d="M103.285 37.5708L112.695 32.375C113.673 32.9099 114.665 33.9923 115.215 35.3549L105.805 40.5507C105.242 39.1754 104.264 38.1057 103.285 37.5708Z" fill="url(#paint31_linear_6686_506467)"/>
<path d="M103.287 37.5699C104.265 38.1047 105.257 39.1872 105.807 40.5498L151.769 153.304C152.894 156.055 151.474 157.952 149.222 156.717L56.7754 106.007C54.5102 104.771 53.1296 101.333 54.2555 99.8176L100.74 37.7736C101.303 37.0223 102.295 37.0223 103.287 37.5699Z" fill="url(#paint32_linear_6686_506467)"/>
<path d="M103.26 43.1111C104.158 43.595 105.043 44.5756 105.552 45.8236L147.238 148.097C148.257 150.593 146.97 152.312 144.933 151.191L61.0782 105.193C59.0274 104.073 57.7674 100.953 58.7861 99.5772L100.955 43.2894C101.464 42.6017 102.362 42.6144 103.26 43.0983V43.1111Z" fill="white"/>
<path d="M103.231 47.5033C104.049 47.949 104.867 48.8405 105.336 49.9866L143.631 143.931C144.569 146.224 143.389 147.803 141.513 146.771L64.4942 104.517C62.6177 103.486 61.4515 100.62 62.3898 99.3594L101.114 47.6689C101.583 47.0449 102.414 47.0449 103.231 47.4906V47.5033Z" fill="url(#paint33_linear_6686_506467)"/>
<path d="M103.796 105.867L100.794 104.225C99.8421 103.703 99.0781 102.302 99.0781 101.105V63.3332C99.0781 62.1234 99.8421 61.5758 100.794 62.0979L103.796 63.7407C104.748 64.2628 105.512 65.6637 105.512 66.8607V104.632C105.512 105.842 104.748 106.39 103.796 105.867Z" fill="white"/>
<path d="M106.143 116.845C106.143 119.163 104.427 120.092 102.296 118.934C100.178 117.775 98.4492 114.948 98.4492 112.63C98.4492 110.312 100.165 109.382 102.296 110.541C104.414 111.713 106.143 114.527 106.143 116.845Z" fill="white"/>
<defs>
<linearGradient id="paint0_linear_6686_506467" x1="191.164" y1="239.405" x2="226.113" y2="239.405" gradientUnits="userSpaceOnUse">
<stop stop-color="#0052D4"/>
<stop offset="0.5" stop-color="#4364F7"/>
<stop offset="1" stop-color="#6FB1FC"/>
</linearGradient>
<linearGradient id="paint1_linear_6686_506467" x1="201.43" y1="239.367" x2="215.851" y2="239.367" gradientUnits="userSpaceOnUse">
<stop stop-color="#0052D4"/>
<stop offset="0.5" stop-color="#4364F7"/>
<stop offset="1" stop-color="#6FB1FC"/>
</linearGradient>
<linearGradient id="paint2_linear_6686_506467" x1="208.641" y1="245.614" x2="226.119" y2="245.614" gradientUnits="userSpaceOnUse">
<stop stop-color="#0052D4"/>
<stop offset="0.5" stop-color="#4364F7"/>
<stop offset="1" stop-color="#6FB1FC"/>
</linearGradient>
<linearGradient id="paint3_linear_6686_506467" x1="208.625" y1="175.661" x2="215.059" y2="175.661" gradientUnits="userSpaceOnUse">
<stop stop-color="#0052D4"/>
<stop offset="0.5" stop-color="#4364F7"/>
<stop offset="1" stop-color="#6FB1FC"/>
</linearGradient>
<linearGradient id="paint4_linear_6686_506467" x1="202.207" y1="108.651" x2="215.066" y2="108.651" gradientUnits="userSpaceOnUse">
<stop stop-color="#0052D4"/>
<stop offset="0.5" stop-color="#4364F7"/>
<stop offset="1" stop-color="#6FB1FC"/>
</linearGradient>
<linearGradient id="paint5_linear_6686_506467" x1="203.941" y1="101.111" x2="213.339" y2="101.111" gradientUnits="userSpaceOnUse">
<stop stop-color="#0052D4"/>
<stop offset="0.5" stop-color="#4364F7"/>
<stop offset="1" stop-color="#6FB1FC"/>
</linearGradient>
<linearGradient id="paint6_linear_6686_506467" x1="208.641" y1="105.76" x2="213.345" y2="105.76" gradientUnits="userSpaceOnUse">
<stop stop-color="#0052D4"/>
<stop offset="0.5" stop-color="#4364F7"/>
<stop offset="1" stop-color="#6FB1FC"/>
</linearGradient>
<linearGradient id="paint7_linear_6686_506467" x1="11.6992" y1="140.876" x2="46.6483" y2="140.876" gradientUnits="userSpaceOnUse">
<stop stop-color="#0052D4"/>
<stop offset="0.5" stop-color="#4364F7"/>
<stop offset="1" stop-color="#6FB1FC"/>
</linearGradient>
<linearGradient id="paint8_linear_6686_506467" x1="21.9531" y1="140.838" x2="36.3741" y2="140.838" gradientUnits="userSpaceOnUse">
<stop stop-color="#0052D4"/>
<stop offset="0.5" stop-color="#4364F7"/>
<stop offset="1" stop-color="#6FB1FC"/>
</linearGradient>
<linearGradient id="paint9_linear_6686_506467" x1="29.1641" y1="147.084" x2="46.6427" y2="147.084" gradientUnits="userSpaceOnUse">
<stop stop-color="#0052D4"/>
<stop offset="0.5" stop-color="#4364F7"/>
<stop offset="1" stop-color="#6FB1FC"/>
</linearGradient>
<linearGradient id="paint10_linear_6686_506467" x1="29.1602" y1="77.1321" x2="35.594" y2="77.1321" gradientUnits="userSpaceOnUse">
<stop stop-color="#0052D4"/>
<stop offset="0.5" stop-color="#4364F7"/>
<stop offset="1" stop-color="#6FB1FC"/>
</linearGradient>
<linearGradient id="paint11_linear_6686_506467" x1="22.7305" y1="10.1216" x2="35.5899" y2="10.1216" gradientUnits="userSpaceOnUse">
<stop stop-color="#0052D4"/>
<stop offset="0.5" stop-color="#4364F7"/>
<stop offset="1" stop-color="#6FB1FC"/>
</linearGradient>
<linearGradient id="paint12_linear_6686_506467" x1="24.4648" y1="2.58198" x2="33.8627" y2="2.58198" gradientUnits="userSpaceOnUse">
<stop stop-color="#0052D4"/>
<stop offset="0.5" stop-color="#4364F7"/>
<stop offset="1" stop-color="#6FB1FC"/>
</linearGradient>
<linearGradient id="paint13_linear_6686_506467" x1="29.1641" y1="7.23703" x2="33.8688" y2="7.23703" gradientUnits="userSpaceOnUse">
<stop stop-color="#0052D4"/>
<stop offset="0.5" stop-color="#4364F7"/>
<stop offset="1" stop-color="#6FB1FC"/>
</linearGradient>
<linearGradient id="paint14_linear_6686_506467" x1="2.00781" y1="35.3286" x2="38.4395" y2="35.3286" gradientUnits="userSpaceOnUse">
<stop stop-color="#0052D4"/>
<stop offset="0.5" stop-color="#4364F7"/>
<stop offset="1" stop-color="#6FB1FC"/>
</linearGradient>
<linearGradient id="paint15_linear_6686_506467" x1="11.6328" y1="56.3594" x2="73.8669" y2="56.3594" gradientUnits="userSpaceOnUse">
<stop stop-color="#0052D4"/>
<stop offset="0.5" stop-color="#4364F7"/>
<stop offset="1" stop-color="#6FB1FC"/>
</linearGradient>
<linearGradient id="paint16_linear_6686_506467" x1="47.0859" y1="75.793" x2="109.32" y2="75.793" gradientUnits="userSpaceOnUse">
<stop stop-color="#0052D4"/>
<stop offset="0.5" stop-color="#4364F7"/>
<stop offset="1" stop-color="#6FB1FC"/>
</linearGradient>
<linearGradient id="paint17_linear_6686_506467" x1="82.5117" y1="95.2466" x2="144.759" y2="95.2466" gradientUnits="userSpaceOnUse">
<stop stop-color="#0052D4"/>
<stop offset="0.5" stop-color="#4364F7"/>
<stop offset="1" stop-color="#6FB1FC"/>
</linearGradient>
<linearGradient id="paint18_linear_6686_506467" x1="117.965" y1="114.692" x2="180.212" y2="114.692" gradientUnits="userSpaceOnUse">
<stop stop-color="#0052D4"/>
<stop offset="0.5" stop-color="#4364F7"/>
<stop offset="1" stop-color="#6FB1FC"/>
</linearGradient>
<linearGradient id="paint19_linear_6686_506467" x1="153.402" y1="134.145" x2="215.623" y2="134.145" gradientUnits="userSpaceOnUse">
<stop stop-color="#0052D4"/>
<stop offset="0.5" stop-color="#4364F7"/>
<stop offset="1" stop-color="#6FB1FC"/>
</linearGradient>
<linearGradient id="paint20_linear_6686_506467" x1="188.871" y1="156.469" x2="220.182" y2="156.469" gradientUnits="userSpaceOnUse">
<stop stop-color="#0052D4"/>
<stop offset="0.5" stop-color="#4364F7"/>
<stop offset="1" stop-color="#6FB1FC"/>
</linearGradient>
<linearGradient id="paint21_linear_6686_506467" x1="18.8281" y1="23.8935" x2="46.4266" y2="23.8935" gradientUnits="userSpaceOnUse">
<stop stop-color="#0052D4"/>
<stop offset="0.5" stop-color="#4364F7"/>
<stop offset="1" stop-color="#6FB1FC"/>
</linearGradient>
<linearGradient id="paint22_linear_6686_506467" x1="54.2695" y1="43.3198" x2="81.8546" y2="43.3198" gradientUnits="userSpaceOnUse">
<stop stop-color="#0052D4"/>
<stop offset="0.5" stop-color="#4364F7"/>
<stop offset="1" stop-color="#6FB1FC"/>
</linearGradient>
<linearGradient id="paint23_linear_6686_506467" x1="89.6953" y1="62.7671" x2="117.294" y2="62.7671" gradientUnits="userSpaceOnUse">
<stop stop-color="#0052D4"/>
<stop offset="0.5" stop-color="#4364F7"/>
<stop offset="1" stop-color="#6FB1FC"/>
</linearGradient>
<linearGradient id="paint24_linear_6686_506467" x1="125.133" y1="82.2007" x2="152.718" y2="82.2007" gradientUnits="userSpaceOnUse">
<stop stop-color="#0052D4"/>
<stop offset="0.5" stop-color="#4364F7"/>
<stop offset="1" stop-color="#6FB1FC"/>
</linearGradient>
<linearGradient id="paint25_linear_6686_506467" x1="160.559" y1="101.627" x2="188.144" y2="101.627" gradientUnits="userSpaceOnUse">
<stop stop-color="#0052D4"/>
<stop offset="0.5" stop-color="#4364F7"/>
<stop offset="1" stop-color="#6FB1FC"/>
</linearGradient>
<linearGradient id="paint26_linear_6686_506467" x1="196.012" y1="121.067" x2="223.57" y2="121.067" gradientUnits="userSpaceOnUse">
<stop stop-color="#0052D4"/>
<stop offset="0.5" stop-color="#4364F7"/>
<stop offset="1" stop-color="#6FB1FC"/>
</linearGradient>
<linearGradient id="paint27_linear_6686_506467" x1="220.117" y1="151.374" x2="228.092" y2="151.374" gradientUnits="userSpaceOnUse">
<stop stop-color="#0052D4"/>
<stop offset="0.5" stop-color="#4364F7"/>
<stop offset="1" stop-color="#6FB1FC"/>
</linearGradient>
<linearGradient id="paint28_linear_6686_506467" x1="151.301" y1="152.521" x2="161.573" y2="152.521" gradientUnits="userSpaceOnUse">
<stop stop-color="#0052D4"/>
<stop offset="0.5" stop-color="#4364F7"/>
<stop offset="1" stop-color="#6FB1FC"/>
</linearGradient>
<linearGradient id="paint29_linear_6686_506467" x1="101.211" y1="34.7776" x2="112.698" y2="34.7776" gradientUnits="userSpaceOnUse">
<stop stop-color="#0052D4"/>
<stop offset="0.5" stop-color="#4364F7"/>
<stop offset="1" stop-color="#6FB1FC"/>
</linearGradient>
<linearGradient id="paint30_linear_6686_506467" x1="105.809" y1="94.3367" x2="161.18" y2="94.3367" gradientUnits="userSpaceOnUse">
<stop stop-color="#0052D4"/>
<stop offset="0.5" stop-color="#4364F7"/>
<stop offset="1" stop-color="#6FB1FC"/>
</linearGradient>
<linearGradient id="paint31_linear_6686_506467" x1="103.285" y1="36.4629" x2="115.215" y2="36.4629" gradientUnits="userSpaceOnUse">
<stop stop-color="#0052D4"/>
<stop offset="0.5" stop-color="#4364F7"/>
<stop offset="1" stop-color="#6FB1FC"/>
</linearGradient>
<linearGradient id="paint32_linear_6686_506467" x1="53.8555" y1="97.1417" x2="152.163" y2="97.1417" gradientUnits="userSpaceOnUse">
<stop stop-color="#0052D4"/>
<stop offset="0.5" stop-color="#4364F7"/>
<stop offset="1" stop-color="#6FB1FC"/>
</linearGradient>
<linearGradient id="paint33_linear_6686_506467" x1="62.0586" y1="97.1345" x2="143.96" y2="97.1345" gradientUnits="userSpaceOnUse">
<stop stop-color="#0052D4"/>
<stop offset="0.5" stop-color="#4364F7"/>
<stop offset="1" stop-color="#6FB1FC"/>
</linearGradient>
</defs>
</svg>
