<svg width="18" height="18" viewBox="0 0 18 18" fill="none" xmlns="http://www.w3.org/2000/svg">
<path d="M15.69 11.715C15.652 11.6241 15.5987 11.5404 15.5325 11.4675L13.2825 9.2175C13.1413 9.07627 12.9497 8.99693 12.75 8.99693C12.5503 8.99693 12.3587 9.07627 12.2175 9.2175C12.0763 9.35873 11.9969 9.55027 11.9969 9.75C11.9969 9.94973 12.0763 10.1413 12.2175 10.2825L13.1925 11.25H9C8.80109 11.25 8.61032 11.329 8.46967 11.4697C8.32902 11.6103 8.25 11.8011 8.25 12C8.25 12.1989 8.32902 12.3897 8.46967 12.5303C8.61032 12.671 8.80109 12.75 9 12.75H13.1925L12.2175 13.7175C12.1472 13.7872 12.0914 13.8702 12.0533 13.9616C12.0153 14.053 11.9957 14.151 11.9957 14.25C11.9957 14.349 12.0153 14.447 12.0533 14.5384C12.0914 14.6298 12.1472 14.7128 12.2175 14.7825C12.2872 14.8528 12.3702 14.9086 12.4616 14.9467C12.553 14.9847 12.651 15.0043 12.75 15.0043C12.849 15.0043 12.947 14.9847 13.0384 14.9467C13.1298 14.9086 13.2128 14.8528 13.2825 14.7825L15.5325 12.5325C15.602 12.4621 15.6556 12.3777 15.69 12.285C15.765 12.1024 15.765 11.8976 15.69 11.715ZM10.5 15H4.5C4.30109 15 4.11032 14.921 3.96967 14.7803C3.82902 14.6397 3.75 14.4489 3.75 14.25V3.75C3.75 3.55109 3.82902 3.36032 3.96967 3.21967C4.11032 3.07902 4.30109 3 4.5 3H8.25V5.25C8.25 5.84674 8.48705 6.41903 8.90901 6.84099C9.33097 7.26295 9.90326 7.5 10.5 7.5H13.5C13.6481 7.49926 13.7926 7.45471 13.9154 7.37196C14.0382 7.28921 14.1337 7.17196 14.19 7.035C14.2474 6.89842 14.2631 6.74788 14.2351 6.60239C14.2071 6.4569 14.1366 6.32297 14.0325 6.2175L9.5325 1.7175C9.4705 1.65916 9.39962 1.61106 9.3225 1.575H9.255L9.045 1.5H4.5C3.90326 1.5 3.33097 1.73705 2.90901 2.15901C2.48705 2.58097 2.25 3.15326 2.25 3.75V14.25C2.25 14.8467 2.48705 15.419 2.90901 15.841C3.33097 16.2629 3.90326 16.5 4.5 16.5H10.5C10.6989 16.5 10.8897 16.421 11.0303 16.2803C11.171 16.1397 11.25 15.9489 11.25 15.75C11.25 15.5511 11.171 15.3603 11.0303 15.2197C10.8897 15.079 10.6989 15 10.5 15ZM9.75 4.0575L11.6925 6H10.5C10.3011 6 10.1103 5.92098 9.96967 5.78033C9.82902 5.63968 9.75 5.44891 9.75 5.25V4.0575Z" fill="#91A7DF"/>
</svg>
