<svg width="419" height="448" viewBox="0 0 419 448" fill="none" xmlns="http://www.w3.org/2000/svg">
<g filter="url(#filter0_d_6978_507113)">
<path d="M398.592 421.815L389.883 426.877C392.028 425.623 393.355 422.982 393.37 419.204L402.078 414.143C402.064 417.921 400.736 420.576 398.592 421.815Z" fill="url(#paint0_linear_6978_507113)"/>
<path d="M197.338 17.8694L206.047 12.8076C208.22 11.5386 211.225 11.7282 214.551 13.6391L205.842 18.7008C202.516 16.7899 199.511 16.6003 197.338 17.8694Z" fill="url(#paint1_linear_6978_507113)"/>
<path d="M394.163 141.206L402.871 136.145L402.083 414.16L393.375 419.207L394.163 141.206Z" fill="url(#paint2_linear_6978_507113)"/>
<path d="M205.843 18.6995L214.551 13.6523L390.953 115.5L382.245 120.561L205.843 18.6995Z" fill="url(#paint3_linear_6978_507113)"/>
<path d="M382.239 120.563C388.832 124.37 394.171 133.604 394.156 141.204L393.369 419.22C393.354 426.805 387.971 429.868 381.378 426.061L204.976 324.214C198.368 320.392 193.044 311.158 193.058 303.573L193.846 25.5427C193.861 17.9428 199.229 14.8941 205.837 18.7013L382.239 120.563Z" fill="url(#paint4_linear_6978_507113)"/>
<path d="M382.245 120.564L390.953 115.502C397.561 119.309 402.886 128.543 402.871 136.143L394.163 141.204C394.192 133.605 388.853 124.371 382.245 120.564Z" fill="url(#paint5_linear_6978_507113)"/>
<path d="M385.359 137.602L384.659 386.196L201.868 280.643V32.0645L385.359 137.602Z" fill="url(#paint6_linear_6978_507113)"/>
<g opacity="0.6">
<path d="M272.674 107.444C240.901 89.0803 215.013 103.756 214.604 140.018L214.529 140.502C214.529 141.638 215.274 143.035 216.261 143.594L272.488 176.056C273.475 176.633 274.239 176.112 274.239 174.976L274.406 110.536C274.406 109.381 273.661 107.984 272.674 107.444Z" fill="white"/>
</g>
<path d="M281.153 112.062L280.93 188.497L241.092 226.825C252.118 242.786 265.807 256.252 280.706 264.856C317.489 286.088 347.325 269.084 347.437 226.919C347.586 184.641 317.936 133.294 281.153 112.062Z" fill="#97AFF6"/>
<path d="M273.559 183.786L215.637 151.436C215.637 151.436 215.004 175.386 238.862 218.502C264.34 194.365 273.559 183.786 273.559 183.786Z" fill="white"/>
<path fill-rule="evenodd" clip-rule="evenodd" d="M364.945 319.701C364.945 321.495 363.005 322.619 361.459 321.714L320.542 297.879C319.827 297.456 319.375 296.697 319.375 295.866C319.375 294.072 321.315 292.948 322.862 293.853L363.778 317.688C364.493 318.097 364.945 318.87 364.945 319.701Z" fill="#A5BAFC"/>
<path fill-rule="evenodd" clip-rule="evenodd" d="M364.945 330.906C364.945 332.7 363.005 333.824 361.459 332.919L320.542 309.084C319.827 308.675 319.375 307.902 319.375 307.071C319.375 305.277 321.315 304.153 322.862 305.058L363.778 328.893C364.493 329.302 364.945 330.075 364.945 330.906Z" fill="#A5BAFC"/>
<path fill-rule="evenodd" clip-rule="evenodd" d="M364.945 342.109C364.945 343.904 363.005 345.027 361.459 344.122L320.542 320.287C319.827 319.879 319.375 319.105 319.375 318.274C319.375 316.48 321.315 315.357 322.862 316.261L363.778 340.096C364.493 340.505 364.945 341.278 364.945 342.109Z" fill="#A5BAFC"/>
<path fill-rule="evenodd" clip-rule="evenodd" d="M364.945 353.314C364.945 355.109 363.005 356.232 361.459 355.327L320.542 331.492C319.827 331.084 319.375 330.311 319.375 329.479C319.375 327.685 321.315 326.562 322.862 327.466L363.778 351.301C364.493 351.71 364.945 352.483 364.945 353.314Z" fill="#A5BAFC"/>
<g clip-path="url(#clip0_6978_507113)">
<path d="M16.0059 307.017L52.3485 327.827L88.9414 307.017L52.5737 286.207L16.0059 307.017Z" fill="#3B63DC"/>
<path d="M52.3436 327.828L52.4688 200.92L16.001 307.018L52.3436 327.828Z" fill="url(#paint7_linear_6978_507113)"/>
<path d="M88.9414 307.018L52.4736 200.92L52.3485 327.828L88.9414 307.018Z" fill="url(#paint8_linear_6978_507113)"/>
</g>
<g clip-path="url(#clip1_6978_507113)">
<path d="M59.7585 336.117L113.546 367.213L167.703 336.117L113.879 305.021L59.7585 336.117Z" fill="#3B63DC"/>
<path d="M113.549 367.213L113.734 177.58L59.7621 336.117L113.549 367.213Z" fill="url(#paint9_linear_6978_507113)"/>
<path d="M167.703 336.117L113.731 177.58L113.546 367.213L167.703 336.117Z" fill="url(#paint10_linear_6978_507113)"/>
</g>
<g clip-path="url(#clip2_6978_507113)">
<path d="M131.24 374.115L167.583 394.925L204.176 374.115L167.808 353.305L131.24 374.115Z" fill="#3B63DC"/>
<path d="M167.578 394.927L167.703 268.02L131.235 374.117L167.578 394.927Z" fill="url(#paint11_linear_6978_507113)"/>
<path d="M204.176 374.117L167.708 268.02L167.583 394.927L204.176 374.117Z" fill="url(#paint12_linear_6978_507113)"/>
</g>
<path d="M143.415 67.1953L137.997 82.5332L123.228 86.4064L138.023 94.4626L143.491 111.35L148.934 96.0119L163.703 92.1387L148.908 84.0824L143.415 67.1953Z" fill="url(#paint13_linear_6978_507113)"/>
<path d="M85.6643 137.105L81.5319 148.709L70.2738 151.602L81.5645 157.712L85.7293 170.453L89.8942 158.882L101.152 155.957L89.8616 149.879L85.6643 137.105Z" fill="url(#paint14_linear_6978_507113)" fill-opacity="0.6"/>
<path d="M261.297 387.314L256.888 399.63L244.906 402.729L256.908 409.213L261.358 422.772L265.767 410.457L277.77 407.358L265.767 400.874L261.297 387.314Z" fill="url(#paint15_linear_6978_507113)" fill-opacity="0.6"/>
</g>
<defs>
<filter id="filter0_d_6978_507113" x="0" y="0" width="418.871" height="447.697" filterUnits="userSpaceOnUse" color-interpolation-filters="sRGB">
<feFlood flood-opacity="0" result="BackgroundImageFix"/>
<feColorMatrix in="SourceAlpha" type="matrix" values="0 0 0 0 0 0 0 0 0 0 0 0 0 0 0 0 0 0 127 0" result="hardAlpha"/>
<feOffset dy="4"/>
<feGaussianBlur stdDeviation="8"/>
<feColorMatrix type="matrix" values="0 0 0 0 0.0426817 0 0 0 0 0.10866 0 0 0 0 0.42079 0 0 0 0.5 0"/>
<feBlend mode="normal" in2="BackgroundImageFix" result="effect1_dropShadow_6978_507113"/>
<feBlend mode="normal" in="SourceGraphic" in2="effect1_dropShadow_6978_507113" result="shape"/>
</filter>
<linearGradient id="paint0_linear_6978_507113" x1="402.078" y1="420.51" x2="389.883" y2="420.51" gradientUnits="userSpaceOnUse">
<stop stop-color="#0052D4"/>
<stop offset="0.5" stop-color="#4364F7"/>
<stop offset="1" stop-color="#6FB1FC"/>
</linearGradient>
<linearGradient id="paint1_linear_6978_507113" x1="214.551" y1="15.3504" x2="197.338" y2="15.3504" gradientUnits="userSpaceOnUse">
<stop stop-color="#0052D4"/>
<stop offset="0.5" stop-color="#4364F7"/>
<stop offset="1" stop-color="#6FB1FC"/>
</linearGradient>
<linearGradient id="paint2_linear_6978_507113" x1="398.495" y1="149.857" x2="434.963" y2="447.434" gradientUnits="userSpaceOnUse">
<stop stop-color="#0052D4"/>
<stop offset="0.682287" stop-color="#4364F7"/>
<stop offset="1" stop-color="#6FB1FC"/>
</linearGradient>
<linearGradient id="paint3_linear_6978_507113" x1="397.036" y1="113.385" x2="209.591" y2="1.06385" gradientUnits="userSpaceOnUse">
<stop stop-color="#0052D4"/>
<stop offset="0.5" stop-color="#4364F7"/>
<stop offset="1" stop-color="#6FB1FC"/>
</linearGradient>
<linearGradient id="paint4_linear_6978_507113" x1="426.204" y1="87.8534" x2="13.3885" y2="508.692" gradientUnits="userSpaceOnUse">
<stop stop-color="#6FB1FC"/>
<stop offset="0.5" stop-color="#4364F7"/>
<stop offset="1" stop-color="#0052D4"/>
</linearGradient>
<linearGradient id="paint5_linear_6978_507113" x1="402.871" y1="128.353" x2="382.245" y2="128.353" gradientUnits="userSpaceOnUse">
<stop stop-color="#0052D4"/>
<stop offset="0.5" stop-color="#4364F7"/>
<stop offset="1" stop-color="#6FB1FC"/>
</linearGradient>
<linearGradient id="paint6_linear_6978_507113" x1="385.359" y1="209.13" x2="201.868" y2="209.13" gradientUnits="userSpaceOnUse">
<stop stop-color="#0052D4"/>
<stop offset="0.5" stop-color="#4364F7"/>
<stop offset="1" stop-color="#6FB1FC"/>
</linearGradient>
<linearGradient id="paint7_linear_6978_507113" x1="58.3824" y1="207.753" x2="8.00898" y2="361.307" gradientUnits="userSpaceOnUse">
<stop stop-color="#6FB1FC"/>
<stop offset="0.5" stop-color="#4364F7"/>
<stop offset="1" stop-color="#0052D4"/>
</linearGradient>
<linearGradient id="paint8_linear_6978_507113" x1="46.5599" y1="269.255" x2="124.946" y2="216.824" gradientUnits="userSpaceOnUse">
<stop stop-color="#0052D4"/>
<stop offset="0.5" stop-color="#4364F7"/>
<stop offset="1" stop-color="#6FB1FC"/>
</linearGradient>
<linearGradient id="paint9_linear_6978_507113" x1="122.487" y1="187.791" x2="46.6337" y2="416.809" gradientUnits="userSpaceOnUse">
<stop stop-color="#6FB1FC"/>
<stop offset="0.5" stop-color="#4364F7"/>
<stop offset="1" stop-color="#0052D4"/>
</linearGradient>
<linearGradient id="paint10_linear_6978_507113" x1="104.979" y1="279.69" x2="221.675" y2="202.378" gradientUnits="userSpaceOnUse">
<stop stop-color="#0052D4"/>
<stop offset="0.5" stop-color="#4364F7"/>
<stop offset="1" stop-color="#6FB1FC"/>
</linearGradient>
<linearGradient id="paint11_linear_6978_507113" x1="173.617" y1="274.853" x2="123.243" y2="428.407" gradientUnits="userSpaceOnUse">
<stop stop-color="#6FB1FC"/>
<stop offset="0.5" stop-color="#4364F7"/>
<stop offset="1" stop-color="#0052D4"/>
</linearGradient>
<linearGradient id="paint12_linear_6978_507113" x1="161.794" y1="336.355" x2="240.181" y2="283.923" gradientUnits="userSpaceOnUse">
<stop stop-color="#0052D4"/>
<stop offset="0.5" stop-color="#4364F7"/>
<stop offset="1" stop-color="#6FB1FC"/>
</linearGradient>
<linearGradient id="paint13_linear_6978_507113" x1="163.703" y1="89.2725" x2="123.228" y2="89.2725" gradientUnits="userSpaceOnUse">
<stop stop-color="#0052D4"/>
<stop offset="0.5" stop-color="#4364F7"/>
<stop offset="1" stop-color="#6FB1FC"/>
</linearGradient>
<linearGradient id="paint14_linear_6978_507113" x1="101.152" y1="153.779" x2="70.2738" y2="153.779" gradientUnits="userSpaceOnUse">
<stop stop-color="#0052D4"/>
<stop offset="0.5" stop-color="#4364F7"/>
<stop offset="1" stop-color="#6FB1FC"/>
</linearGradient>
<linearGradient id="paint15_linear_6978_507113" x1="277.77" y1="405.043" x2="244.906" y2="405.043" gradientUnits="userSpaceOnUse">
<stop stop-color="#0052D4"/>
<stop offset="0.5" stop-color="#4364F7"/>
<stop offset="1" stop-color="#6FB1FC"/>
</linearGradient>
<clipPath id="clip0_6978_507113">
<rect width="72.9355" height="126.908" fill="white" transform="matrix(-1 0 0 1 88.9375 200.92)"/>
</clipPath>
<clipPath id="clip1_6978_507113">
<rect width="107.945" height="189.632" fill="white" transform="matrix(-1 0 0 1 167.699 177.58)"/>
</clipPath>
<clipPath id="clip2_6978_507113">
<rect width="72.9355" height="126.908" fill="white" transform="matrix(-1 0 0 1 204.172 268.02)"/>
</clipPath>
</defs>
</svg>
